<svg width="25" height="25" viewBox="0 0 25 25" fill="none" xmlns="http://www.w3.org/2000/svg">
<path fill-rule="evenodd" clip-rule="evenodd" d="M19.7917 3.125H5.20833C4.05208 3.125 3.125 4.0625 3.125 5.20833V19.7917C3.125 20.9375 4.05208 21.875 5.20833 21.875H19.7917C20.9479 21.875 21.875 20.9375 21.875 19.7917V5.20833C21.875 4.0625 20.9479 3.125 19.7917 3.125ZM7.71875 16.7083L6.46875 14.5521C6.38542 14.4167 6.41667 14.25 6.53125 14.1458L7.85417 13.1146L7.85132 13.0862C7.83148 12.8882 7.8125 12.6988 7.8125 12.5C7.8125 12.2917 7.83333 12.0938 7.86458 11.8854L6.54167 10.8542C6.42708 10.75 6.38542 10.5833 6.46875 10.4479L7.71875 8.29167C7.80208 8.15625 7.95833 8.10417 8.10417 8.15625L9.65625 8.78125C9.96875 8.53125 10.3333 8.33333 10.7083 8.17708L10.9375 6.52083C10.9688 6.36458 11.0937 6.25 11.25 6.25H13.75C13.9062 6.25 14.0312 6.36458 14.0625 6.51042L14.2917 8.16667C14.6771 8.32292 15.0208 8.53125 15.3437 8.78125L16.8958 8.15625C17.0417 8.10417 17.1979 8.15625 17.2812 8.29167L18.5312 10.4479C18.6146 10.5833 18.5729 10.7604 18.4583 10.8542L17.1354 11.8854L17.1383 11.9138C17.1581 12.1118 17.1771 12.3011 17.1771 12.5C17.1771 12.6979 17.1667 12.9062 17.1354 13.1042L18.4583 14.1354C18.5729 14.2396 18.6146 14.4062 18.5312 14.5417L17.2812 16.6979C17.1979 16.8333 17.0417 16.8854 16.8958 16.8333L15.3437 16.2083C15.0208 16.4583 14.6667 16.6667 14.2917 16.8229L14.0625 18.4792C14.0312 18.6354 13.9062 18.75 13.75 18.75H11.25C11.0937 18.75 10.9688 18.6354 10.9375 18.4896L10.7083 16.8333C10.3229 16.6771 9.97917 16.4687 9.65625 16.2187L8.10417 16.8438C7.95833 16.8958 7.80208 16.8438 7.71875 16.7083ZM14.2812 12.5C14.2812 11.5208 13.4792 10.7188 12.5 10.7188C11.5208 10.7188 10.7188 11.5208 10.7188 12.5C10.7188 13.4792 11.5208 14.2812 12.5 14.2812C13.4792 14.2812 14.2812 13.4792 14.2812 12.5ZM5.20833 19.7917H19.7917V5.20833H5.20833V19.7917Z" fill="black" fill-opacity="0.54"/>
</svg>
